<svg width="518.000000" height="757.000000" viewBox="0 0 518 757" fill="none" xmlns="http://www.w3.org/2000/svg" xmlns:xlink="http://www.w3.org/1999/xlink">
	<defs/>
	<path id="Rectangle 31" d="M258.92 0C115.84 0 -0.15 105.66 -0.15 236L-0.15 757L518 757L518 236C518 105.66 402.01 0 258.92 0ZM517 756L517 236Q517 213.85 512.65 192.6Q507.61 167.98 496.73 144.55Q491.69 133.69 485.57 123.47Q467.95 94.01 441.44 69.86Q430.62 60 418.82 51.49Q391.69 31.91 359.41 19.47Q343.15 13.21 326.38 9.07Q293.65 1 258.92 1Q224.2 1 191.47 9.07Q174.69 13.21 158.44 19.47Q126.16 31.91 99.02 51.49Q87.23 60 76.41 69.86Q49.88 94.02 32.26 123.5Q26.15 133.71 21.12 144.55Q10.24 167.99 5.2 192.63Q0.85 213.87 0.85 236L0.85 756L517 756Z" fill="#25A4AD" fill-opacity="1.000000" fill-rule="evenodd"/>
</svg>
