<svg width="234.000000" height="92.000000" viewBox="0 0 234 92" fill="none" xmlns="http://www.w3.org/2000/svg" xmlns:xlink="http://www.w3.org/1999/xlink">
	<defs/>
	<path id="Vector 2" d="M205.74 51.73Q220.57 65.21 232.23 79.19L233.76 77.91Q222.01 63.82 207.09 50.25Q189.12 33.91 171.63 23.17Q132.7 -0.72 105.45 8.22Q104.73 7.62 103.98 7.06Q94.52 0 79.78 0Q67.24 0 56.14 4Q38.53 10.37 24.57 26.83Q14.57 38.62 8.48 52.18Q5.95 57.8 4.1 63.72L-0.79 62.58L2.54 73.55L10.37 65.18L6.06 64.18Q7.84 58.49 10.27 53.08Q16.25 39.73 26.1 28.12Q39.76 12.01 56.98 5.84Q67.69 2 79.78 2Q94 2 103.01 8.84Q103.12 8.93 103.23 9.01Q99.53 10.43 96.06 12.48Q76.54 23.99 67.96 37.85Q62.14 47.25 61.8 56.85Q61.7 59.56 62.03 62.28Q62.62 67.01 64.4 71.25Q66.69 76.69 70.96 81.31Q77.02 87.86 84.39 90.07Q85.72 90.47 87.1 90.72Q89.9 91.24 92.57 90.86Q101.23 89.62 108.53 78.88Q117.39 65.84 118.81 47.62Q120.32 28.26 111.87 15.5Q111.74 15.31 111.61 15.11Q109.61 12.16 107.17 9.78Q133.26 1.96 170.58 24.87Q187.92 35.51 205.74 51.73ZM105 10.49Q107.76 13 109.96 16.24Q118.3 28.51 116.82 47.46Q115.44 65.15 106.88 77.75Q99.94 87.96 91.9 88.92Q89.72 89.18 87.46 88.76Q86.38 88.55 85.32 88.25Q78.26 86.26 72.42 79.95Q68.38 75.57 66.22 70.4Q64.56 66.45 64.02 62.03Q63.72 59.64 63.79 57.25Q64.03 48 69.66 38.9Q77.98 25.46 97.07 14.2Q100.72 12.06 104.62 10.63Q104.81 10.56 105 10.49Z" fill="#25A4AD" fill-opacity="1.000000" fill-rule="evenodd"/>
</svg>
