<svg width="119.000000" height="26.000000" viewBox="0 0 119 26" fill="none" xmlns="http://www.w3.org/2000/svg" xmlns:xlink="http://www.w3.org/1999/xlink">
	<defs/>
	<path id="Vector" d="M10.66 8.69C10.51 8.53 10.32 8.41 10.14 8.32C10.85 7.46 11.22 6.35 11.22 5.2C11.22 3.69 10.54 2.28 9.37 1.32C8.44 0.55 7.27 0.18 5.73 0.18L-0.68 0.18L-0.68 5.2L-0.68 7.42L-0.68 10.2L-0.68 13.07L-0.68 18.74L6.53 18.74C8.29 18.74 9.61 18.34 10.63 17.48C11.96 16.4 12.73 14.79 12.73 13.1C12.76 11.37 11.99 9.77 10.66 8.69ZM2.52 3.17L5.14 3.17C6.62 3.17 7.12 3.48 7.39 3.82C7.73 4.19 7.95 4.68 7.95 5.2C7.95 5.73 7.76 6.19 7.39 6.59C7.09 6.93 6.62 7.24 5.14 7.24L2.52 7.24L2.52 3.17ZM8.72 14.89C8.29 15.32 7.64 15.72 5.95 15.72L2.52 15.72L2.52 10.26L5.98 10.26C7.67 10.26 8.29 10.66 8.72 11.09C9.21 11.62 9.49 12.3 9.49 12.98C9.49 13.68 9.21 14.36 8.72 14.89Z" fill="#313131" fill-opacity="1.000000" fill-rule="nonzero"/>
	<path id="Vector" d="M23.18 6.07L26.2 6.07L26.2 18.74L23.18 18.74L23.18 6.07Z" fill="#313131" fill-opacity="1.000000" fill-rule="evenodd"/>
	<path id="Vector" d="M24.66 0.15C23.61 0.15 22.78 0.98 22.78 2.06C22.78 3.11 23.61 3.94 24.66 3.94C25.74 3.94 26.57 3.11 26.57 2.06C26.57 1.01 25.71 0.15 24.66 0.15Z" fill="#313131" fill-opacity="1.000000" fill-rule="nonzero"/>
	<path id="Vector" d="M37.58 6.9C36.56 6.19 35.39 5.82 34.07 5.82C32.93 5.82 31.85 6.1 30.95 6.62C28.95 7.8 27.71 10.02 27.71 12.39C27.71 14.8 28.92 16.95 30.95 18.13C31.85 18.65 33.02 18.96 34.13 18.96C35.39 18.96 36.53 18.62 37.49 17.94L37.49 18.03C37.49 19.42 37.3 20.35 36.87 20.99C36.32 21.83 35.39 22.26 34.16 22.26C32.22 22.26 31.17 21.21 30.4 20.22L30.21 19.98L28.02 22.01L28.15 22.2C29.01 23.55 31.14 25.13 34.28 25.13C36.72 25.13 38.72 23.98 39.77 21.98C40.3 20.96 40.51 19.7 40.51 17.88L40.51 6.07L37.58 6.07L37.58 6.9ZM37.49 14.58C36.75 15.54 35.61 16.12 34.44 16.12C32.34 16.12 30.71 14.49 30.71 12.42C30.71 10.29 32.25 8.72 34.31 8.72C35.52 8.72 36.72 9.31 37.49 10.26L37.49 14.58Z" fill="#313131" fill-opacity="1.000000" fill-rule="nonzero"/>
	<path id="Vector" d="M48.5 5.82C47.05 5.82 45.94 6.35 45.23 6.84L45.23 0.15L42.21 0.15L42.21 18.74L45.23 18.74L45.23 10.26C45.85 9.55 46.89 8.72 48.44 8.72C49.33 8.72 50.19 9.12 50.72 9.8C51.06 10.23 51.37 10.82 51.37 12.42L51.37 18.74L54.39 18.74L54.39 12.54C54.39 10.51 54.02 9.18 53.15 8.07C52.01 6.65 50.35 5.82 48.5 5.82Z" fill="#313131" fill-opacity="1.000000" fill-rule="nonzero"/>
	<path id="Vector" d="M74.09 6.62C73.2 6.1 72.12 5.82 70.98 5.82C69.65 5.82 68.48 6.19 67.46 6.9L67.46 6.1L64.53 6.1L64.53 24.94L67.55 24.94L67.55 17.97C68.51 18.65 69.65 18.99 70.91 18.99C72.02 18.99 73.23 18.68 74.09 18.16C76.13 16.95 77.33 14.83 77.33 12.42C77.36 10.05 76.09 7.83 74.09 6.62ZM70.61 16.12C69.46 16.12 68.32 15.54 67.55 14.58L67.55 10.23C68.32 9.28 69.5 8.69 70.73 8.69C72.8 8.69 74.34 10.29 74.34 12.39C74.34 14.49 72.7 16.12 70.61 16.12Z" fill="#313131" fill-opacity="1.000000" fill-rule="nonzero"/>
	<path id="Vector" d="M84.82 5.82C81.24 5.82 78.65 8.6 78.65 12.42C78.65 16.18 81.46 19.02 85.19 19.02C88.34 19.02 89.94 17.35 90.49 16.65L90.65 16.43L88.64 14.55L88.46 14.76C87.78 15.54 86.83 16.31 85.19 16.31C83.37 16.31 81.86 14.98 81.58 13.22L90.83 13.22L90.86 12.98C90.9 12.73 90.9 12.54 90.9 12.42C90.9 8.66 88.27 5.82 84.82 5.82ZM81.89 10.57C82.38 9.34 83.56 8.51 84.91 8.51C86.12 8.51 87.29 9.37 87.72 10.57L81.89 10.57Z" fill="#313131" fill-opacity="1.000000" fill-rule="nonzero"/>
	<path id="Vector" d="M102.03 6.9C101.01 6.19 99.84 5.82 98.51 5.82C97.37 5.82 96.29 6.1 95.4 6.62C93.39 7.8 92.16 10.02 92.16 12.39C92.16 14.8 93.36 16.95 95.4 18.13C96.29 18.65 97.46 18.96 98.57 18.96C99.84 18.96 101.04 18.59 102.03 17.91L102.03 18.71L104.96 18.71L104.96 6.07L102.03 6.07L102.03 6.9ZM101.93 14.58C101.19 15.54 100.05 16.12 98.88 16.12C96.78 16.12 95.15 14.49 95.15 12.42C95.15 10.29 96.69 8.72 98.76 8.72C99.96 8.72 101.16 9.31 101.93 10.26L101.93 14.58Z" fill="#313131" fill-opacity="1.000000" fill-rule="nonzero"/>
	<path id="Vector" d="M115.56 0L118.59 0L118.59 18.74L115.56 18.74L115.56 0Z" fill="#313131" fill-opacity="1.000000" fill-rule="evenodd"/>
	<path id="Vector" d="M62.84 15.97C62.43 16.09 61.76 16.15 61.32 16.15C60.58 16.15 59.84 15.87 59.51 15.47C59.2 15.1 59.14 14.52 59.14 13.78L59.14 8.78L62.84 8.78L62.84 6.07L59.14 6.07L59.14 0.15L56.11 0.15L56.11 13.59C56.11 15.26 56.48 16.49 57.25 17.32C58.21 18.4 59.57 18.96 61.23 18.96C61.76 18.96 62.34 18.89 62.84 18.8L62.84 15.97Z" fill="#313131" fill-opacity="1.000000" fill-rule="nonzero"/>
	<path id="Vector" d="M21.58 5.95C21.18 5.85 20.75 5.82 20.31 5.82C18.87 5.82 17.75 6.35 17.05 6.84L17.05 6.07L14.02 6.07L14.02 18.74L17.05 18.74L17.05 10.26C17.66 9.55 18.71 8.72 20.25 8.72C20.72 8.72 21.18 8.84 21.61 9.03L21.58 5.95Z" fill="#313131" fill-opacity="1.000000" fill-rule="nonzero"/>
	<path id="Vector" d="M114.21 5.95C113.81 5.85 113.37 5.82 112.94 5.82C111.49 5.82 110.38 6.35 109.67 6.84L109.67 6.07L106.65 6.07L106.65 18.74L109.67 18.74L109.67 10.26C110.29 9.55 111.34 8.72 112.88 8.72C113.34 8.72 113.81 8.84 114.24 9.03L114.21 5.95Z" fill="#313131" fill-opacity="1.000000" fill-rule="nonzero"/>
</svg>
