<svg width="149.000000" height="21.000000" viewBox="0 0 149 21" fill="none" xmlns="http://www.w3.org/2000/svg" xmlns:xlink="http://www.w3.org/1999/xlink">
	<defs/>
	<path id="Vector" d="M60.56 0L65.24 0L65.24 19.66L60.56 19.66L60.56 0Z" fill="#313131" fill-opacity="1.000000" fill-rule="nonzero"/>
	<path id="Vector" d="M69.41 8.4L67.15 8.4L67.15 5.37L69.41 5.37C69.41 1.26 70.85 0 74.84 0C75.58 0 76.35 0.05 77.1 0.08L77.1 3.38C76.66 3.33 76.25 3.3 75.83 3.3C74.76 3.3 74.1 3.44 74.1 4.73L74.1 5.37L76.91 5.37L76.91 8.4L74.1 8.4L74.1 19.66L69.41 19.66L69.41 8.4Z" fill="#313131" fill-opacity="1.000000" fill-rule="nonzero"/>
	<path id="Vector" d="M90.02 14.95C90.02 15.66 90.32 16.19 90.79 16.55C91.23 16.88 91.86 17.04 92.53 17.04C93.43 17.04 94.73 16.66 94.73 15.53C94.73 14.43 93.27 14.2 92.44 14.01C89.49 13.27 85.81 13.19 85.81 9.33C85.81 5.89 89.52 4.95 92.33 4.95C95.47 4.95 98.75 5.86 98.91 9.58L94.59 9.58C94.59 8.97 94.37 8.59 93.98 8.34C93.6 8.09 93.07 7.98 92.49 7.98C91.73 7.98 90.49 8.06 90.49 9.06C90.49 10.4 93.63 10.65 95.78 11.12C98.67 11.7 99.41 13.79 99.41 14.98C99.41 18.81 95.78 20.07 92.55 20.07C89.17 20.07 85.7 18.94 85.56 14.95L90.02 14.95Z" fill="#313131" fill-opacity="1.000000" fill-rule="nonzero"/>
	<path id="Vector" d="M101.09 0L105.78 0L105.78 7.32L105.83 7.32C106.55 5.86 108.48 4.95 110.18 4.95C114.95 4.95 115.33 8.42 115.33 10.49L115.33 19.66L110.65 19.66L110.65 12.75C110.65 10.79 110.87 8.81 108.31 8.81C106.55 8.81 105.78 10.3 105.78 11.86L105.78 19.66L101.09 19.66L101.09 0Z" fill="#313131" fill-opacity="1.000000" fill-rule="nonzero"/>
	<path id="Vector" d="M121.65 13.66C121.73 15.61 122.86 16.91 124.84 16.91C125.97 16.91 127.07 16.38 127.51 15.34L131.89 15.34C131.04 18.64 127.98 20.07 124.79 20.07C120.13 20.07 116.96 17.26 116.96 12.47C116.96 8.09 120.46 4.95 124.68 4.95C129.8 4.95 132.36 8.81 132.14 13.66L121.65 13.66ZM127.46 11.04C127.37 9.44 126.25 8.12 124.68 8.12C123.02 8.12 121.92 9.3 121.65 11.04L127.46 11.04Z" fill="#313131" fill-opacity="1.000000" fill-rule="nonzero"/>
	<path id="Vector" d="M134.05 5.37L138.6 5.37L138.6 7.87L138.65 7.87C139.34 6.06 140.94 5.09 142.95 5.09C143.31 5.09 143.69 5.12 144.05 5.2L144.05 9.47C143.45 9.31 142.89 9.19 142.26 9.19C139.95 9.19 138.74 10.79 138.74 12.58L138.74 19.66L134.05 19.66L134.05 5.37Z" fill="#313131" fill-opacity="1.000000" fill-rule="nonzero"/>
	<path id="Vector" d="M79.09 5.37L83.77 5.37L83.77 19.66L79.09 19.66L79.09 5.37ZM83.76 0.07L79.09 0.07L79.09 3.38L83.76 3.38L83.76 0.07Z" fill="#313131" fill-opacity="1.000000" fill-rule="nonzero"/>
	<path id="Vector" d="M148.32 19.65L143.65 19.65L143.65 16.33L148.32 16.33L148.32 19.65Z" fill="#313131" fill-opacity="1.000000" fill-rule="nonzero"/>
	<path id="Vector" d="M20.74 13.66C20.82 15.61 21.95 16.91 23.93 16.91C25.06 16.91 26.16 16.38 26.6 15.34L30.98 15.34C30.13 18.64 27.07 20.07 23.88 20.07C19.23 20.07 16.06 17.26 16.06 12.47C16.06 8.09 19.55 4.95 23.77 4.95C28.89 4.95 31.45 8.81 31.23 13.66L20.74 13.66ZM26.55 11.04C26.47 9.44 25.34 8.12 23.77 8.12C22.12 8.12 21.02 9.3 20.74 11.04L26.55 11.04Z" fill="#313131" fill-opacity="1.000000" fill-rule="nonzero"/>
	<path id="Vector" d="M42.17 19.66C42.01 19.22 41.95 18.77 41.9 18.31C40.68 19.58 38.89 20.07 37.19 20.07C34.46 20.07 32.31 18.69 32.31 15.75C32.31 11.09 37.38 11.45 40.63 10.79C41.43 10.63 41.87 10.35 41.87 9.47C41.87 8.4 40.57 7.98 39.61 7.98C38.32 7.98 37.49 8.56 37.27 9.77L32.89 9.77C32.97 7.9 33.85 6.68 35.12 5.94C36.39 5.23 38.04 4.95 39.67 4.95C43.06 4.95 46.33 5.69 46.33 9.74L46.33 19.66L42.17 19.66ZM38.95 17.18C41.18 17.18 41.92 15.91 41.81 12.97C41.15 13.38 39.94 13.46 38.92 13.74C37.88 13.98 36.99 14.43 36.99 15.55C36.99 16.71 37.9 17.18 38.95 17.18Z" fill="#313131" fill-opacity="1.000000" fill-rule="nonzero"/>
	<path id="Vector" d="M48.8 5.37L53.35 5.37L53.35 7.87L53.4 7.87C54.09 6.06 55.69 5.09 57.69 5.09C58.05 5.09 58.44 5.12 58.8 5.2L58.8 9.47C58.19 9.31 57.64 9.19 57.01 9.19C54.69 9.19 53.48 10.79 53.48 12.58L53.48 19.66L48.8 19.66L48.8 5.37Z" fill="#313131" fill-opacity="1.000000" fill-rule="nonzero"/>
	<path id="Vector" d="M-0.16 0.09L8.99 0.09C12.7 0.09 16.19 1.79 16.19 6.51C16.19 11.45 13.37 13.37 8.99 13.37L5.03 13.37L5.03 20.01L-0.16 20.01L-0.16 0.09ZM5.03 9.35L8.21 9.35C9.83 9.35 11 8.68 11 6.87C11 5 9.8 4.25 8.21 4.25L5.03 4.25L5.03 9.35Z" fill="#313131" fill-opacity="1.000000" fill-rule="nonzero"/>
	<path id="Vector" d="M148.25 19.71L143.55 19.71L143.55 16.38L148.25 16.38L148.25 19.71Z" fill="#313131" fill-opacity="1.000000" fill-rule="nonzero"/>
</svg>
