<svg width="155.000000" height="33.000000" viewBox="0 0 155 33" fill="none" xmlns="http://www.w3.org/2000/svg" xmlns:xlink="http://www.w3.org/1999/xlink">
	<defs/>
	<path id="Vector" d="M123.79 22.2C124.02 21.54 124.1 20.69 124.1 19.3C124.1 17.9 124.02 17.09 123.79 16.39C123.33 15 122.27 14.3 120.76 14.3C119.24 14.3 118.21 15.03 117.75 16.39C117.52 17.15 117.43 18.05 117.43 19.3C117.43 20.58 117.52 21.48 117.75 22.2C118.21 23.57 119.24 24.33 120.76 24.33C122.27 24.33 123.33 23.6 123.79 22.2ZM124.39 26.27C124.22 26.27 124.1 26.16 124.1 25.98L124.1 24.65L124.08 24.65C123.42 25.75 122.24 26.59 120.18 26.59C117.81 26.59 116.15 25.46 115.46 23.25C115.09 22.15 114.97 21.04 114.97 19.3C114.97 17.58 115.09 16.48 115.46 15.37C116.15 13.17 117.81 12.03 120.18 12.03C122.24 12.03 123.42 12.85 124.08 13.95L124.1 13.95L124.1 6.8C124.1 6.63 124.22 6.51 124.39 6.51L126.22 6.51C126.4 6.51 126.51 6.63 126.51 6.8L126.51 25.98C126.51 26.16 126.4 26.27 126.22 26.27L124.39 26.27ZM138.31 21.77L138.31 20.23C138.31 20.11 138.25 20.05 138.13 20.05L135.39 20.05C133.01 20.05 131.98 20.75 131.98 22.32C131.98 23.74 133.01 24.5 134.84 24.5C136.99 24.5 138.31 23.48 138.31 21.77ZM138.65 26.27C138.48 26.27 138.36 26.16 138.36 25.98L138.36 24.76L138.34 24.76C137.71 25.81 136.36 26.59 134.27 26.59C131.66 26.59 129.66 25.23 129.66 22.41C129.66 19.47 131.66 18.11 135.01 18.11L138.13 18.11C138.25 18.11 138.31 18.05 138.31 17.93L138.31 16.91C138.31 15 137.56 14.18 135.01 14.18C133.47 14.18 132.49 14.59 131.69 15.17C131.55 15.29 131.38 15.29 131.29 15.14L130.52 13.81C130.43 13.63 130.46 13.51 130.58 13.4C131.61 12.58 133.21 12.03 135.24 12.03C139.14 12.03 140.63 13.34 140.63 16.77L140.63 25.98C140.63 26.16 140.51 26.27 140.34 26.27L138.65 26.27ZM144.35 31.5C144.18 31.5 144.06 31.39 144.06 31.21L144.06 29.53C144.06 29.35 144.18 29.24 144.35 29.24L144.86 29.24C145.98 29.24 146.58 28.74 147.18 27.14L147.64 25.87L142.6 12.64C142.54 12.47 142.63 12.35 142.83 12.35L144.84 12.35C145.01 12.35 145.12 12.44 145.18 12.64L148.79 22.7L148.84 22.7L152.31 12.64C152.37 12.44 152.48 12.35 152.65 12.35L154.6 12.35C154.77 12.35 154.88 12.47 154.83 12.64L149.42 27.35C148.21 30.63 147.15 31.5 145.09 31.5L144.35 31.5Z" fill="#313131" fill-opacity="1.000000" fill-rule="evenodd"/>
	<path id="Vector" d="M74.83 12.41C74.83 10.26 73.43 8.92 71.02 8.92L66.67 8.92C66.55 8.92 66.5 8.98 66.5 9.1L66.5 15.72C66.5 15.84 66.55 15.9 66.67 15.9L71.02 15.9C73.43 15.9 74.83 14.56 74.83 12.41ZM64.24 26.27C64.06 26.27 63.95 26.16 63.95 25.98L63.95 6.8C63.95 6.63 64.06 6.51 64.24 6.51L71.16 6.51C74.91 6.51 77.35 8.84 77.35 12.41C77.35 15.98 74.91 18.31 71.16 18.31L66.67 18.31C66.55 18.31 66.5 18.37 66.5 18.48L66.5 25.98C66.5 26.16 66.38 26.27 66.21 26.27L64.24 26.27ZM83.28 26.42C80.87 26.42 79.93 25.26 79.93 22.76L79.93 6.8C79.93 6.63 80.04 6.51 80.21 6.51L82.04 6.51C82.22 6.51 82.33 6.63 82.33 6.8L82.33 22.61C82.33 23.77 82.76 24.15 83.71 24.15L84.25 24.15C84.42 24.15 84.54 24.27 84.54 24.44L84.54 26.13C84.54 26.3 84.42 26.42 84.25 26.42L83.28 26.42ZM95.02 21.77L95.02 20.23C95.02 20.11 94.96 20.05 94.84 20.05L92.1 20.05C89.72 20.05 88.69 20.75 88.69 22.32C88.69 23.74 89.72 24.5 91.55 24.5C93.7 24.5 95.02 23.48 95.02 21.77ZM95.36 26.27C95.19 26.27 95.07 26.16 95.07 25.98L95.07 24.76L95.04 24.76C94.41 25.81 93.07 26.59 90.98 26.59C88.37 26.59 86.37 25.23 86.37 22.41C86.37 19.47 88.37 18.11 91.72 18.11L94.84 18.11C94.96 18.11 95.02 18.05 95.02 17.93L95.02 16.91C95.02 15 94.27 14.18 91.72 14.18C90.18 14.18 89.2 14.59 88.4 15.17C88.26 15.29 88.09 15.29 88 15.14L87.23 13.81C87.14 13.63 87.17 13.51 87.28 13.4C88.32 12.58 89.92 12.03 91.95 12.03C95.85 12.03 97.33 13.34 97.33 16.77L97.33 25.98C97.33 26.16 97.22 26.27 97.05 26.27L95.36 26.27ZM109.96 26.27C109.79 26.27 109.68 26.16 109.68 25.98L109.68 17.84C109.68 15.61 108.67 14.3 106.61 14.3C104.75 14.3 103.46 15.64 103.46 17.7L103.46 25.98C103.46 26.16 103.35 26.27 103.18 26.27L101.34 26.27C101.17 26.27 101.06 26.16 101.06 25.98L101.06 12.64C101.06 12.47 101.17 12.35 101.34 12.35L103.18 12.35C103.35 12.35 103.46 12.47 103.46 12.64L103.46 13.92L103.49 13.92C104.15 12.85 105.47 12.03 107.33 12.03C110.31 12.03 112.08 14.1 112.08 17.26L112.08 25.98C112.08 26.16 111.97 26.27 111.79 26.27L109.96 26.27Z" fill="#313131" fill-opacity="1.000000" fill-rule="evenodd"/>
	<path id="Vector" d="M40.06 13.44C39.45 10.65 37.96 8.02 35.57 5.98C29.72 1 21.43 1.98 16.75 7.64L16.75 7.64L16.75 7.64L-0.23 28.19C-1.34 29.52 -1.25 31 -0.03 32.05C1.2 33.09 2.65 32.92 3.75 31.58L13.92 19.28L20.69 11.09L20.69 11.09C20.71 11.07 20.72 11.05 20.74 11.03C20.83 10.92 20.93 10.81 21.02 10.71C21.04 10.69 21.05 10.68 21.07 10.66C24.17 7.3 29.06 7.24 32.27 9.98C32.27 9.98 32.29 9.99 32.32 10.01C36.09 13.26 35.89 18.48 33.24 21.68C33.15 21.79 32.93 22.04 32.91 22.06C29.81 25.41 25 25.48 21.66 22.71C20.96 22.11 20.4 21.44 19.97 20.73C19.45 19.87 18.26 19.79 17.62 20.56L15.44 23.2C16.2 24.5 17.18 25.69 18.41 26.74C24.26 31.72 32.55 30.73 37.23 25.08C37.23 25.08 40.96 20.68 40.06 13.44Z" fill="#313131" fill-opacity="1.000000" fill-rule="evenodd"/>
	<path id="Vector" d="M40.06 13.44L50.24 1.13C51.34 -0.2 52.79 -0.37 54.01 0.67C55.24 1.71 55.32 3.19 54.22 4.53L37.23 25.07C32.55 30.73 24.26 31.72 18.41 26.74C17.18 25.69 16.2 24.49 15.44 23.2L17.62 20.56C18.26 19.79 19.45 19.87 19.97 20.73C20.4 21.44 20.97 22.11 21.67 22.71C24.98 25.47 29.8 25.41 32.9 22.06C32.91 22.05 33.17 21.76 33.24 21.68L40.06 13.44Z" fill="#313131" fill-opacity="1.000000" fill-rule="evenodd"/>
</svg>
