<svg width="156.000000" height="26.000000" viewBox="0 0 156 26" fill="none" xmlns="http://www.w3.org/2000/svg" xmlns:xlink="http://www.w3.org/1999/xlink">
	<defs/>
	<path id="Star 1" d="M13 0L10.08 8.98L0.63 8.98L8.27 14.53L5.35 23.51L13 17.96L20.64 23.51L17.72 14.53L25.36 8.98L15.91 8.98L13 0Z" fill="#F5B91E" fill-opacity="1.000000" fill-rule="nonzero"/>
	<path id="Star 2" d="M45.5 0L42.58 8.98L33.13 8.98L40.77 14.53L37.85 23.51L45.5 17.96L53.14 23.51L50.22 14.53L57.86 8.98L48.41 8.98L45.5 0Z" fill="#F5B91E" fill-opacity="1.000000" fill-rule="nonzero"/>
	<path id="Star 3" d="M78 0L75.08 8.98L65.63 8.98L73.27 14.53L70.35 23.51L78 17.96L85.64 23.51L82.72 14.53L90.36 8.98L80.91 8.98L78 0Z" fill="#F5B91E" fill-opacity="1.000000" fill-rule="nonzero"/>
	<path id="Star 4" d="M110.5 0L107.58 8.98L98.13 8.98L105.77 14.53L102.85 23.51L110.5 17.96L118.14 23.51L115.22 14.53L122.86 8.98L113.41 8.98L110.5 0Z" fill="#F5B91E" fill-opacity="1.000000" fill-rule="nonzero"/>
	<path id="Star 5" d="M143 0L140.08 8.98L130.63 8.98L138.27 14.53L135.35 23.51L143 17.96L150.64 23.51L147.72 14.53L155.36 8.98L145.91 8.98L143 0Z" fill="#F5B91E" fill-opacity="1.000000" fill-rule="nonzero"/>
</svg>
