<svg width="135.000000" height="23.000000" viewBox="0 0 135 23" fill="none" xmlns="http://www.w3.org/2000/svg" xmlns:xlink="http://www.w3.org/1999/xlink">
	<defs/>
	<path id="Vector" d="M119.34 13.77C119.34 8.37 120.81 4.59 127.09 4.59C133.37 4.59 134.84 8.37 134.84 13.77C134.84 19.18 133.37 22.96 127.09 22.96C120.94 22.96 119.34 19.18 119.34 13.77ZM130.97 13.77C130.97 9.99 130.43 7.83 127.22 7.83C124.02 7.83 123.48 9.99 123.48 13.77C123.48 17.56 124.02 19.72 127.22 19.72C130.43 19.72 130.97 17.42 130.97 13.77ZM12.01 22.29C12.14 22.42 12.27 22.56 12.41 22.56L13.88 22.56C14.14 22.56 14.41 22.29 14.41 22.02L14.41 5.4C14.41 5.13 14.14 4.86 13.88 4.86L11.07 4.86C10.8 4.86 10.53 5.13 10.53 5.4L10.53 18.5C9.33 19.18 7.86 19.58 6.52 19.58C4.65 19.58 3.72 18.77 3.72 17.02L3.72 5.4C3.72 5.13 3.45 4.86 3.18 4.86L0.38 4.86C0.11 4.86 -0.16 5.13 -0.16 5.4L-0.16 17.29C-0.16 20.66 1.45 22.96 5.86 22.96C7.86 22.96 9.87 22.29 11.47 21.07L12.01 22.29ZM44.62 10.13C44.62 6.75 43.02 4.45 38.87 4.45C36.87 4.45 35 5.13 33.26 6.21C32.59 5.13 31.12 4.45 28.85 4.45C26.98 4.45 25.1 5.13 23.63 6.34L23.1 5.13C22.97 4.99 22.83 4.86 22.7 4.86L21.23 4.86C20.96 4.86 20.69 5.13 20.69 5.4L20.69 22.02C20.69 22.29 20.96 22.56 21.23 22.56L24.17 22.56C24.44 22.56 24.7 22.29 24.7 22.02L24.7 8.91C25.77 8.24 27.11 7.83 28.31 7.83C29.92 7.83 30.85 8.37 30.85 10.13L30.85 22.02C30.85 22.29 31.12 22.56 31.39 22.56L34.33 22.56C34.59 22.56 34.86 22.29 34.86 22.02L34.86 8.91C35.93 8.24 37.27 7.83 38.47 7.83C39.94 7.83 41.01 8.37 41.01 10.13L41.01 22.02C41.01 22.29 41.28 22.56 41.54 22.56L44.49 22.56C44.75 22.56 45.02 22.29 45.02 22.02L44.62 10.13ZM53.57 21.07C55.18 22.29 57.18 22.96 59.19 22.96C64.27 22.96 66.14 19.45 66.14 13.77C66.14 8.1 64.27 4.59 59.19 4.59C57.58 4.59 55.85 5.13 54.51 5.94L54.51 0.54C54.51 0.27 54.24 0 53.98 0L51.03 0C50.77 0 50.63 0.27 50.63 0.54L50.63 22.02C50.63 22.29 50.9 22.56 51.17 22.56L52.64 22.56C52.77 22.56 53.04 22.42 53.04 22.29L53.57 21.07ZM58.25 19.58C56.92 19.58 55.58 19.18 54.51 18.5L54.51 8.91C55.71 8.24 56.92 7.83 58.25 7.83C61.73 7.83 62.13 10.53 62.13 13.77C62.13 17.02 61.73 19.58 58.25 19.58ZM80.57 7.97C80.17 7.97 79.64 7.83 79.24 7.83C77.63 7.83 76.16 8.1 74.83 8.91L74.83 22.02C74.83 22.29 74.56 22.56 74.29 22.56L71.35 22.56C71.08 22.56 70.82 22.29 70.82 22.02L70.82 5.4C70.82 5.13 71.08 4.86 71.35 4.86L72.82 4.86C72.96 4.86 73.22 4.99 73.22 5.13L73.76 6.34C75.36 5.13 77.23 4.45 79.24 4.45C79.64 4.45 80.17 4.45 80.57 4.59C80.84 4.59 81.11 4.99 81.11 5.26L81.11 7.42C81.11 7.7 80.84 7.97 80.57 7.97ZM90.6 14.45C88.86 14.72 87.79 15.26 87.79 17.15C87.79 18.5 88.33 19.72 90.47 19.72C91.8 19.72 93.14 19.31 94.21 18.5L94.21 13.91L90.6 14.45ZM95.28 21.07C93.81 22.29 91.94 22.96 90.06 22.96C85.52 22.96 84.05 20.12 84.05 17.29C84.05 13.5 86.46 11.88 90.47 11.48L94.34 11.21L94.34 10.4C94.34 8.64 93.54 7.83 90.87 7.83C89.26 7.83 87.66 8.1 86.05 8.64L85.92 8.64C85.65 8.64 85.39 8.37 85.39 8.1L85.39 5.8C85.39 5.53 85.52 5.4 85.79 5.26C87.53 4.72 89.4 4.32 91.13 4.32C96.88 4.32 98.22 6.88 98.22 10.53L98.22 21.74C98.22 22.02 97.95 22.29 97.68 22.29L96.21 22.29C96.08 22.29 95.81 22.15 95.81 22.02L95.28 21.07ZM115.06 18.91L115.19 18.91C115.46 18.91 115.73 19.18 115.73 19.45L115.73 21.74C115.73 22.02 115.59 22.15 115.46 22.29C113.99 22.83 112.52 23.1 110.92 22.96C104.77 22.96 102.9 19.18 102.9 13.77C102.9 8.37 104.77 4.59 110.92 4.59C112.39 4.59 113.99 4.72 115.33 5.26C115.46 5.4 115.59 5.53 115.59 5.8L115.59 8.1C115.59 8.37 115.33 8.64 115.06 8.64L114.93 8.64C113.72 8.24 112.39 8.1 111.05 8.1C107.71 8.1 106.64 10.4 106.64 13.91C106.64 17.42 107.57 19.72 111.05 19.72C112.52 19.45 113.86 19.31 115.06 18.91Z" fill="#313131" fill-opacity="1.000000" fill-rule="nonzero"/>
</svg>
